<svg id="visual" viewBox="0 0 900 300" width="900" height="300" xmlns="http://www.w3.org/2000/svg" xmlns:xlink="http://www.w3.org/1999/xlink" version="1.1"><rect x="0" y="0" width="900" height="300" fill="#ffffff"></rect><defs><linearGradient id="grad1_0" x1="66.7%" y1="0%" x2="100%" y2="100%"><stop offset="-10%" stop-color="#ffffff" stop-opacity="1"></stop><stop offset="110%" stop-color="#ffffff" stop-opacity="1"></stop></linearGradient></defs><defs><linearGradient id="grad2_0" x1="0%" y1="0%" x2="33.3%" y2="100%"><stop offset="-10%" stop-color="#ffffff" stop-opacity="1"></stop><stop offset="110%" stop-color="#ffffff" stop-opacity="1"></stop></linearGradient></defs><g transform="translate(900, 0)"><path d="M0 270C-35.7 265.4 -71.3 260.7 -102.2 246.7C-133 232.6 -159 209.1 -184.6 184.6C-210.1 160 -235.3 134.3 -249.4 103.3C-263.6 72.4 -266.8 36.2 -270 0L0 0Z" fill="#ffb23e"></path></g><g transform="translate(0, 300)"><path d="M0 -270C39.3 -270.2 78.7 -270.5 103.3 -249.4C128 -228.4 138 -186.1 159.1 -159.1C180.2 -132.1 212.5 -120.4 232.8 -96.4C253.2 -72.5 261.6 -36.2 270 0L0 0Z" fill="#ffb23e"></path></g></svg>