<svg width="100" height="120" viewBox="0 0 100 120" fill="none" xmlns="http://www.w3.org/2000/svg">
<rect width="100" height="120" fill="#1E1E1E"/>
<g clip-path="url(#clip0_1_2)">
<path d="M48.5 41.7564C38.2927 41.7564 29.9885 49.4917 29.9885 58.9999C29.9885 68.508 38.2927 76.2434 48.5 76.2434C58.7073 76.2434 67.0115 68.508 67.0115 58.9999C67.0115 49.4919 58.7073 41.7564 48.5 41.7564Z" fill="white"/>
<path d="M76.0784 59L82.8572 50.5141C83.3206 49.9342 83.4532 49.181 83.2135 48.4934C82.9736 47.8058 82.3909 47.2692 81.6501 47.0536L70.8114 43.9L70.9408 33.3232C70.9498 32.6003 70.5818 31.9182 69.954 31.4932C69.3261 31.0683 68.516 30.953 67.7807 31.1844L57.0221 34.5676L50.453 25.94C50.004 25.3503 49.2761 25 48.5 25C47.7239 25 46.996 25.3503 46.547 25.94L39.9778 34.5678L29.219 31.1846C28.4836 30.9533 27.6735 31.0684 27.0457 31.4934C26.4179 31.9184 26.0499 32.6004 26.0589 33.3234L26.1885 43.9001L15.3497 47.0538C14.6089 47.2694 14.0263 47.806 13.7865 48.4935C13.5466 49.1811 13.6794 49.9342 14.1428 50.5143L20.9216 59.0002L14.1428 67.486C13.6794 68.0659 13.5468 68.8192 13.7865 69.5068C14.0263 70.1943 14.6091 70.7309 15.3497 70.9465L26.1885 74.1L26.0589 84.6768C26.0499 85.3997 26.4179 86.0818 27.0457 86.5068C27.6736 86.9316 28.4834 87.0468 29.219 86.8156L39.9778 83.4324L46.547 92.0601C46.996 92.6498 47.7239 93.0002 48.5 93.0002C49.2761 93.0002 50.004 92.6498 50.453 92.0601L57.0223 83.4324L67.7809 86.8156C68.5161 87.0468 69.3262 86.9317 69.9542 86.5068C70.582 86.0818 70.9499 85.3997 70.941 84.677L70.8115 74.1L81.6503 70.9465C82.3911 70.7309 82.9737 70.1943 83.2136 69.5068C83.4534 68.8192 83.3208 68.0661 82.8574 67.486L76.0784 59ZM48.5 80.7042C35.6522 80.7042 25.1998 70.9677 25.1998 58.9999C25.1998 47.0321 35.6522 37.2957 48.5 37.2957C61.3478 37.2957 71.8003 47.0321 71.8003 58.9999C71.8003 70.9677 61.3478 80.7042 48.5 80.7042Z" fill="white"/>
</g>
<defs>
<clipPath id="clip0_1_2">
<rect width="73" height="68" fill="white" transform="translate(12 25)"/>
</clipPath>
</defs>
</svg>
