<?xml version="1.0" encoding="UTF-8"?>
<svg id="Layer_1" data-name="Layer 1" xmlns="http://www.w3.org/2000/svg" viewBox="0 0 500 500">
  <defs>
    <style>
      .cls-1 {
        fill: #3c58a7;
      }

      .cls-1, .cls-2, .cls-3, .cls-4 {
        stroke-miterlimit: 10;
        stroke-width: 5px;
      }

      .cls-1, .cls-3, .cls-4 {
        stroke: #3c58a7;
      }

      .cls-2 {
        fill: #faefa4;
        stroke: #faef64;
      }

      .cls-3 {
        fill: #f7ec13;
      }

      .cls-4 {
        fill: none;
      }
    </style>
  </defs>
  <ellipse class="cls-2" cx="289.08" cy="126.65" rx="62.93" ry="45.37"/>
  <line class="cls-4" x1="268.14" y1="465.16" x2="198.11" y2="465.16"/>
  <g>
    <g>
      <polyline class="cls-4" points="498.56 397.61 383.35 397.61 442.08 397.61 442.08 4.22 9.04 4.22 9.04 496.76 442.08 496.76 441.57 439.23 473.95 439.11 408.4 439.11"/>
      <g>
        <path class="cls-3" d="m168.75,360.93c9.66,32.05,4.96,59.99,0,77.69l29.37,26.55h70.03l31.63-26.55c-4.76-17.89-9.08-45.66,0-77.69,14.76-52.03,50.14-63.18,76.81-114,12.33-23.49,49.62-94.58,0-148.2-46.35-50.1-138.1-52.05-144.57-52.12-8.89-.09-95.38-.04-142.32,45.6-59.86,58.2-8.6,145.04,0,159.61,28.27,47.89,63.9,58.81,79.06,109.12Z"/>
        <path class="cls-4" d="m299.77,438.62h-131.02,131.02Z"/>
        <path class="cls-4" d="m174.32,401.65h120.18"/>
        <line class="cls-4" x1="168.75" y1="360.93" x2="299.77" y2="360.93"/>
      </g>
    </g>
    <polygon class="cls-1" points="270.56 462.25 196.89 462.25 178.08 441.5 294.5 441.5 270.56 462.25"/>
  </g>
</svg>