<svg id="visual" viewBox="0 0 900 300" width="900" height="300" xmlns="http://www.w3.org/2000/svg" xmlns:xlink="http://www.w3.org/1999/xlink" version="1.1"><path d="M0 198L18.8 199.2C37.7 200.3 75.3 202.7 112.8 205C150.3 207.3 187.7 209.7 225.2 206.7C262.7 203.7 300.3 195.3 337.8 193.8C375.3 192.3 412.7 197.7 450.2 196C487.7 194.3 525.3 185.7 562.8 186.3C600.3 187 637.7 197 675.2 200.7C712.7 204.3 750.3 201.7 787.8 195.8C825.3 190 862.7 181 881.3 176.5L900 172L900 301L881.3 301C862.7 301 825.3 301 787.8 301C750.3 301 712.7 301 675.2 301C637.7 301 600.3 301 562.8 301C525.3 301 487.7 301 450.2 301C412.7 301 375.3 301 337.8 301C300.3 301 262.7 301 225.2 301C187.7 301 150.3 301 112.8 301C75.3 301 37.7 301 18.8 301L0 301Z" fill="#0cc4d6"></path><path d="M0 208L18.8 212.3C37.7 216.7 75.3 225.3 112.8 225C150.3 224.7 187.7 215.3 225.2 212.7C262.7 210 300.3 214 337.8 214.5C375.3 215 412.7 212 450.2 210.3C487.7 208.7 525.3 208.3 562.8 206.5C600.3 204.7 637.7 201.3 675.2 202.2C712.7 203 750.3 208 787.8 213C825.3 218 862.7 223 881.3 225.5L900 228L900 301L881.3 301C862.7 301 825.3 301 787.8 301C750.3 301 712.7 301 675.2 301C637.7 301 600.3 301 562.8 301C525.3 301 487.7 301 450.2 301C412.7 301 375.3 301 337.8 301C300.3 301 262.7 301 225.2 301C187.7 301 150.3 301 112.8 301C75.3 301 37.7 301 18.8 301L0 301Z" fill="#00aede"></path><path d="M0 244L18.8 241.2C37.7 238.3 75.3 232.7 112.8 233.2C150.3 233.7 187.7 240.3 225.2 241.8C262.7 243.3 300.3 239.7 337.8 237.2C375.3 234.7 412.7 233.3 450.2 234.7C487.7 236 525.3 240 562.8 239.3C600.3 238.7 637.7 233.3 675.2 228.8C712.7 224.3 750.3 220.7 787.8 221.5C825.3 222.3 862.7 227.7 881.3 230.3L900 233L900 301L881.3 301C862.7 301 825.3 301 787.8 301C750.3 301 712.7 301 675.2 301C637.7 301 600.3 301 562.8 301C525.3 301 487.7 301 450.2 301C412.7 301 375.3 301 337.8 301C300.3 301 262.7 301 225.2 301C187.7 301 150.3 301 112.8 301C75.3 301 37.7 301 18.8 301L0 301Z" fill="#0094dc"></path><path d="M0 251L18.8 252.7C37.7 254.3 75.3 257.7 112.8 259.7C150.3 261.7 187.7 262.3 225.2 262.3C262.7 262.3 300.3 261.7 337.8 259.2C375.3 256.7 412.7 252.3 450.2 251C487.7 249.7 525.3 251.3 562.8 252.3C600.3 253.3 637.7 253.7 675.2 252.2C712.7 250.7 750.3 247.3 787.8 244.8C825.3 242.3 862.7 240.7 881.3 239.8L900 239L900 301L881.3 301C862.7 301 825.3 301 787.8 301C750.3 301 712.7 301 675.2 301C637.7 301 600.3 301 562.8 301C525.3 301 487.7 301 450.2 301C412.7 301 375.3 301 337.8 301C300.3 301 262.7 301 225.2 301C187.7 301 150.3 301 112.8 301C75.3 301 37.7 301 18.8 301L0 301Z" fill="#1077d1"></path><path d="M0 285L18.8 282.7C37.7 280.3 75.3 275.7 112.8 274.5C150.3 273.3 187.7 275.7 225.2 277.3C262.7 279 300.3 280 337.8 279.3C375.3 278.7 412.7 276.3 450.2 274.7C487.7 273 525.3 272 562.8 270.7C600.3 269.3 637.7 267.7 675.2 266.5C712.7 265.3 750.3 264.7 787.8 267.8C825.3 271 862.7 278 881.3 281.5L900 285L900 301L881.3 301C862.7 301 825.3 301 787.8 301C750.3 301 712.7 301 675.2 301C637.7 301 600.3 301 562.8 301C525.3 301 487.7 301 450.2 301C412.7 301 375.3 301 337.8 301C300.3 301 262.7 301 225.2 301C187.7 301 150.3 301 112.8 301C75.3 301 37.7 301 18.8 301L0 301Z" fill="#3c58bf"></path></svg>