<svg id="visual" viewBox="0 0 900 300" width="900" height="300" xmlns="http://www.w3.org/2000/svg" xmlns:xlink="http://www.w3.org/1999/xlink" version="1.1"><path d="M0 37L13.7 38.5C27.3 40 54.7 43 82 43.5C109.3 44 136.7 42 163.8 44C191 46 218 52 245.2 51C272.3 50 299.7 42 327 40C354.3 38 381.7 42 409 41C436.3 40 463.7 34 491 32C518.3 30 545.7 32 573 36.5C600.3 41 627.7 48 654.8 54.5C682 61 709 67 736.2 65.5C763.3 64 790.7 55 818 49.5C845.3 44 872.7 42 886.3 41L900 40L900 0L886.3 0C872.7 0 845.3 0 818 0C790.7 0 763.3 0 736.2 0C709 0 682 0 654.8 0C627.7 0 600.3 0 573 0C545.7 0 518.3 0 491 0C463.7 0 436.3 0 409 0C381.7 0 354.3 0 327 0C299.7 0 272.3 0 245.2 0C218 0 191 0 163.8 0C136.7 0 109.3 0 82 0C54.7 0 27.3 0 13.7 0L0 0Z" fill="#7888d4"></path><path d="M0 106L13.7 115C27.3 124 54.7 142 82 149C109.3 156 136.7 152 163.8 153C191 154 218 160 245.2 159.5C272.3 159 299.7 152 327 146.5C354.3 141 381.7 137 409 131C436.3 125 463.7 117 491 109.5C518.3 102 545.7 95 573 94.5C600.3 94 627.7 100 654.8 114C682 128 709 150 736.2 159.5C763.3 169 790.7 166 818 159.5C845.3 153 872.7 143 886.3 138L900 133L900 38L886.3 39C872.7 40 845.3 42 818 47.5C790.7 53 763.3 62 736.2 63.5C709 65 682 59 654.8 52.5C627.7 46 600.3 39 573 34.5C545.7 30 518.3 28 491 30C463.7 32 436.3 38 409 39C381.7 40 354.3 36 327 38C299.7 40 272.3 48 245.2 49C218 50 191 44 163.8 42C136.7 40 109.3 42 82 41.5C54.7 41 27.3 38 13.7 36.5L0 35Z" fill="#5c70ca"></path><path d="M0 151L13.7 161C27.3 171 54.7 191 82 196C109.3 201 136.7 191 163.8 187.5C191 184 218 187 245.2 186C272.3 185 299.7 180 327 175C354.3 170 381.7 165 409 158C436.3 151 463.7 142 491 138.5C518.3 135 545.7 137 573 140C600.3 143 627.7 147 654.8 158C682 169 709 187 736.2 195.5C763.3 204 790.7 203 818 197C845.3 191 872.7 180 886.3 174.5L900 169L900 131L886.3 136C872.7 141 845.3 151 818 157.5C790.7 164 763.3 167 736.2 157.5C709 148 682 126 654.8 112C627.7 98 600.3 92 573 92.5C545.7 93 518.3 100 491 107.5C463.7 115 436.3 123 409 129C381.7 135 354.3 139 327 144.5C299.7 150 272.3 157 245.2 157.5C218 158 191 152 163.8 151C136.7 150 109.3 154 82 147C54.7 140 27.3 122 13.7 113L0 104Z" fill="#3c58bf"></path><path d="M0 259L13.7 258.5C27.3 258 54.7 257 82 258.5C109.3 260 136.7 264 163.8 265.5C191 267 218 266 245.2 264.5C272.3 263 299.7 261 327 258.5C354.3 256 381.7 253 409 251C436.3 249 463.7 248 491 250.5C518.3 253 545.7 259 573 258C600.3 257 627.7 249 654.8 251C682 253 709 265 736.2 270C763.3 275 790.7 273 818 272.5C845.3 272 872.7 273 886.3 273.5L900 274L900 167L886.3 172.5C872.7 178 845.3 189 818 195C790.7 201 763.3 202 736.2 193.5C709 185 682 167 654.8 156C627.7 145 600.3 141 573 138C545.7 135 518.3 133 491 136.5C463.7 140 436.3 149 409 156C381.7 163 354.3 168 327 173C299.7 178 272.3 183 245.2 184C218 185 191 182 163.8 185.5C136.7 189 109.3 199 82 194C54.7 189 27.3 169 13.7 159L0 149Z" fill="#334ca5"></path><path d="M0 301L13.7 301C27.3 301 54.7 301 82 301C109.3 301 136.7 301 163.8 301C191 301 218 301 245.2 301C272.3 301 299.7 301 327 301C354.3 301 381.7 301 409 301C436.3 301 463.7 301 491 301C518.3 301 545.7 301 573 301C600.3 301 627.7 301 654.8 301C682 301 709 301 736.2 301C763.3 301 790.7 301 818 301C845.3 301 872.7 301 886.3 301L900 301L900 272L886.3 271.5C872.7 271 845.3 270 818 270.5C790.7 271 763.3 273 736.2 268C709 263 682 251 654.8 249C627.7 247 600.3 255 573 256C545.7 257 518.3 251 491 248.5C463.7 246 436.3 247 409 249C381.7 251 354.3 254 327 256.5C299.7 259 272.3 261 245.2 262.5C218 264 191 265 163.8 263.5C136.7 262 109.3 258 82 256.5C54.7 255 27.3 256 13.7 256.5L0 257Z" fill="#2a418c"></path></svg>