<svg id="visual" viewBox="0 0 900 300" width="900" height="300" xmlns="http://www.w3.org/2000/svg" xmlns:xlink="http://www.w3.org/1999/xlink" version="1.1"><rect x="0" y="0" width="900" height="300" fill="#D9D9D9"></rect><defs><linearGradient id="grad1_0" x1="66.7%" y1="0%" x2="100%" y2="100%"><stop offset="-10%" stop-color="#d9d9d9" stop-opacity="1"></stop><stop offset="110%" stop-color="#d9d9d9" stop-opacity="1"></stop></linearGradient></defs><defs><linearGradient id="grad2_0" x1="0%" y1="0%" x2="33.3%" y2="100%"><stop offset="-10%" stop-color="#d9d9d9" stop-opacity="1"></stop><stop offset="110%" stop-color="#d9d9d9" stop-opacity="1"></stop></linearGradient></defs><g transform="translate(900, 0)"><path d="M0 270C-39 270.2 -78.1 270.5 -103.3 249.4C-128.6 228.4 -140 186.1 -157.7 157.7C-175.3 129.2 -199.2 114.7 -219 90.7C-238.7 66.7 -254.4 33.4 -270 0L0 0Z" fill="#3C58BF"></path></g><g transform="translate(0, 300)"><path d="M0 -270C38.6 -269.7 77.2 -269.4 103.3 -249.4C129.5 -229.5 143.1 -189.9 161.9 -161.9C180.7 -134 204.7 -117.7 223.6 -92.6C242.4 -67.6 256.2 -33.8 270 0L0 0Z" fill="#3C58BF"></path></g></svg>